<?xml version="1.0" encoding="UTF-8" standalone="no"?>
<!-- Created with Inkscape (http://www.inkscape.org/) -->

<svg
   width="1080"
   height="1080"
   viewBox="0 0 1080 1080"
   version="1.1"
   id="svg1"
   xml:space="preserve"
   xmlns:xlink="http://www.w3.org/1999/xlink"
   xmlns="http://www.w3.org/2000/svg"
   xmlns:svg="http://www.w3.org/2000/svg"><defs
     id="defs1"><linearGradient
       id="linearGradient15"><stop
         style="stop-color:#e4e8f8;stop-opacity:1;"
         offset="0"
         id="stop15" /><stop
         style="stop-color:#f8e4f8;stop-opacity:0.91100705;"
         offset="1"
         id="stop16" /></linearGradient><linearGradient
       id="linearGradient13"><stop
         style="stop-color:#e4e8f8;stop-opacity:1;"
         offset="0"
         id="stop13" /><stop
         style="stop-color:#e4e8f8;stop-opacity:0;"
         offset="1"
         id="stop14" /></linearGradient><linearGradient
       id="linearGradient9"><stop
         style="stop-color:#a622bf;stop-opacity:0.90163934;"
         offset="0"
         id="stop10" /><stop
         style="stop-color:#63dddc;stop-opacity:1;"
         offset="1"
         id="stop9" /></linearGradient><filter
       style="color-interpolation-filters:sRGB"
       id="filter9"
       x="-0.001338843"
       y="-0.0033926699"
       width="1.0026777"
       height="1.0067853"><feGaussianBlur
         stdDeviation="0.37893705"
         id="feGaussianBlur9" /></filter><linearGradient
       xlink:href="#linearGradient9"
       id="linearGradient10"
       x1="711.84137"
       y1="262.40509"
       x2="223.28204"
       y2="574.29352"
       gradientUnits="userSpaceOnUse" /><linearGradient
       xlink:href="#linearGradient15"
       id="linearGradient16"
       x1="425.84125"
       y1="573.46625"
       x2="463.69382"
       y2="881.96454"
       gradientUnits="userSpaceOnUse" /><linearGradient
       xlink:href="#linearGradient9"
       id="linearGradient2"
       gradientUnits="userSpaceOnUse"
       x1="711.84137"
       y1="262.40509"
       x2="223.28204"
       y2="574.29352" /><linearGradient
       xlink:href="#linearGradient9"
       id="linearGradient3"
       gradientUnits="userSpaceOnUse"
       x1="711.84137"
       y1="262.40509"
       x2="223.28204"
       y2="574.29352" /></defs><g
     id="layer1"><path
       style="fill:#e4e8f8"
       d="m 394.55082,802.05633 c -2.42246,-0.51467 -6.34341,-1.92495 -8.71322,-3.13394 -2.36982,-1.20899 -5.97196,-3.65847 -8.00476,-5.44329 l -3.696,-3.24513 -2.9567,-6.0209 -2.95671,-6.02091 v -9.00761 -9.00761 l 2.95671,-6.0209 2.9567,-6.0209 3.88311,-3.40942 3.88311,-3.40941 5.50813,-2.52171 5.50812,-2.5217 6.86597,-0.64115 6.86596,-0.64116 7.70957,2.34171 7.70956,2.34171 5.96982,6.01259 5.96982,6.01259 1.8125,5.68522 1.8125,5.68521 v 6.19687 6.19687 l -2.28241,6.10029 -2.28241,6.1003 -5.40955,5.40954 -5.40954,5.40955 -5.2896,1.82266 -5.2896,1.82265 -6.35831,0.43188 -6.35831,0.43187 z m 17.33134,-14.95834 4.58843,-2.22122 2.89925,-4.93188 2.89925,-4.93188 -0.075,-6.45577 -0.075,-6.45577 -2.38408,-3.85753 -2.38409,-3.85753 -2.94543,-2.09733 -2.94543,-2.09733 -4.36176,-0.98003 -4.36176,-0.98002 -4.91395,1.04804 -4.91395,1.04805 -4.018,4.018 -4.018,4.018 -1.13827,5.30757 -1.13827,5.30756 1.41708,5.463 1.41708,5.463 3.05349,3.24662 c 1.67942,1.78565 4.4841,3.8852 6.23264,4.66567 l 3.17916,1.41904 4.69908,0.0415 4.69909,0.0415 z m 253.73806,14.92102 -4.62309,-0.9731 -5.44424,-3.0538 -5.44425,-3.05381 -3.87799,-5.08512 -3.87799,-5.08511 -1.82117,-5.78999 -1.82118,-5.78999 0.54393,-6.7762 0.54393,-6.7762 2.81335,-5.75027 2.81335,-5.75028 3.88311,-3.40942 3.88311,-3.40941 5.50812,-2.52171 5.50812,-2.5217 6.86597,-0.64115 6.86597,-0.64116 7.70956,2.34171 7.70957,2.34171 6.02305,6.02306 6.02306,6.02306 1.88786,5.68379 1.88785,5.6838 -0.48495,8.08208 -0.48495,8.08208 -2.77264,5.42931 -2.77263,5.42931 -4.87768,4.2935 -4.87768,4.29351 -4.97488,1.71542 -4.97488,1.71542 -6.35832,0.43188 -6.35831,0.43187 z m 17.54997,-14.92102 4.58843,-2.22122 2.7352,-4.66727 2.7352,-4.66727 0.5357,-3.99392 0.53569,-3.99392 -1.19431,-4.43533 -1.1943,-4.43533 -2.74766,-3.2654 c -1.51121,-1.79597 -4.22953,-4.03171 -6.04071,-4.96831 l -3.29305,-1.7029 h -5.43962 -5.43961 l -4.4915,2.52436 -4.4915,2.52437 -2.54539,4.34337 -2.54538,4.34337 v 5.93129 5.93129 l 1.12713,2.98322 c 0.61993,1.64076 2.40821,4.35269 3.97395,6.02649 1.56575,1.67381 4.27743,3.68186 6.02597,4.46233 l 3.17915,1.41904 4.69909,0.0415 4.69908,0.0415 z M 289.27438,769.18455 v -32.85128 h 7.41803 7.41803 v 12.71663 12.71662 h 14.3062 14.30621 V 749.0499 736.33327 h 7.94789 7.94789 v 32.85128 32.85129 h -7.94789 -7.94789 v -13.77635 -13.77634 h -14.30621 -14.3062 v 13.77634 13.77635 h -7.41803 -7.41803 z m 168.0341,31.90268 -0.58627,-0.94861 0.2588,-31.90146 0.2588,-31.90145 17.02809,-10e-4 17.02809,-10e-4 5.55408,1.64938 5.55408,1.64939 4.1842,3.78017 4.1842,3.78017 1.69517,5.83119 1.69518,5.83118 -0.672,4.20243 c -0.3696,2.31134 -1.62431,6.06912 -2.78825,8.35063 l -2.11626,4.14821 -3.67828,2.37779 -3.67828,2.37779 0.41613,1.13018 c 0.22888,0.6216 3.32593,5.28924 6.88233,10.37253 3.55641,5.08329 6.4662,9.46266 6.4662,9.73193 0,0.26928 -3.72064,0.4896 -8.26809,0.4896 h -8.2681 l -6.1317,-9.53747 -6.1317,-9.53747 h -6.79458 -6.79458 v 9.53747 9.53747 h -7.35549 -7.35549 z m 32.46949,-30.88537 3.92574,-1.09031 2.16764,-2.75571 2.16764,-2.75571 v -3.63577 -3.63577 l -1.09113,-2.0388 -1.09114,-2.0388 -3.09511,-1.60055 -3.09512,-1.60054 h -8.53038 -8.53037 v 11.12704 11.12705 l 6.62324,-0.006 6.62324,-0.006 z m 43.99661,31.03919 c -0.23097,-0.43714 -0.5386,-15.22021 -0.68363,-32.85129 l -0.26368,-32.05649 h 8.03911 8.03911 v 32.85128 32.85129 H 541.55 534.19451 Z m 34.20585,-4.4783 v -5.27309 l 17.5408,-20.95495 17.5408,-20.95496 -17.01094,-0.29118 -17.01094,-0.29118 v -6.33206 -6.33206 h 27.55269 27.55269 v 4.57348 4.57349 l -17.45242,21.1247 c -9.59884,11.61858 -17.46725,21.48235 -17.48536,21.91948 l -0.0329,0.79479 h 18.01522 18.01522 v 6.35831 6.35832 h -28.61241 -28.61241 z m 161.07727,-27.5782 v -32.85128 h 6.68888 6.68888 l 2.51132,3.44409 c 1.38123,1.89424 8.23779,10.47797 15.23681,19.07493 6.99902,8.59697 12.99249,15.63143 13.31883,15.63212 l 0.59333,10e-4 -0.31116,-19.0762 -0.31116,-19.0762 h 7.37014 7.37013 l 0.45272,6.62324 c 0.249,3.64279 0.41057,18.30664 0.35906,32.58636 l -0.0937,25.96311 -6.35831,0.27245 -6.35831,0.27245 -15.89579,-19.58416 -15.89578,-19.58417 -0.28831,19.57665 -0.28831,19.57664 h -7.39465 -7.39465 z M 244.2532,703.48198 c -0.7411,-1.45711 -6.1149,-13.14051 -11.94178,-25.96311 -5.82688,-12.8226 -13.70867,-30.22848 -17.51509,-38.67974 -3.80642,-8.45125 -9.31106,-20.73075 -12.23253,-27.28776 l -5.31176,-11.92183 h 14.08628 14.08628 l 5.58793,12.45169 c 3.07336,6.84844 10.08756,22.70448 15.5871,35.23566 5.49954,12.53117 10.45911,23.94741 11.02126,25.36942 l 1.0221,2.58547 6.34403,-14.24237 c 3.48921,-7.83331 11.16522,-24.85282 17.05779,-37.82113 l 10.71376,-23.57874 h 13.50636 13.50636 l -18.29491,40.00438 c -10.0622,22.00242 -20.92949,45.72687 -24.14953,52.72102 l -5.85463,12.71662 -12.93578,0.52986 -12.93578,0.52986 z m 89.52937,-50.60157 v -53.25087 h 42.91861 42.91861 v 10.06733 10.06733 h -30.20198 -30.20199 v 11.12704 11.12705 h 27.0626 27.06259 l -0.30469,9.8024 -0.3047,9.8024 -26.7579,0.28313 -26.7579,0.28312 v 11.63871 11.63871 h 31.26171 31.2617 v 10.33226 10.33226 H 377.7609 333.78257 Z m 109.58862,52.80932 c -0.24067,-0.24285 -0.43758,-24.20574 -0.43758,-53.25087 v -52.80932 l 29.4072,0.0184 29.40719,0.0184 6.96172,1.47579 c 3.82894,0.81168 9.13947,2.49945 11.80116,3.75059 2.6617,1.25114 6.78122,3.93689 9.15449,5.96833 l 4.31505,3.69351 3.4356,6.97871 3.43561,6.97871 -0.006,8.60766 -0.006,8.60767 -2.91075,6.35831 -2.91076,6.35831 -3.91856,4.06374 -3.91856,4.06374 -3.97395,2.05118 c -2.18567,1.12815 -3.97394,2.23302 -3.97394,2.45527 0,0.22224 5.46522,8.08096 12.14495,17.46382 l 12.14495,17.05974 h -14.60314 -14.60314 l -6.27678,-9.24043 c -3.45197,-5.08224 -8.2165,-11.87769 -10.58759,-15.10099 l -4.31107,-5.86056 -11.85735,0.33103 -11.85736,0.33104 v 14.70765 14.70764 l -12.8089,0.32724 c -7.0449,0.17998 -13.00582,0.12854 -13.24649,-0.11431 z m 59.47436,-52.36008 c 1.76934,-0.68422 4.15371,-1.95934 5.29859,-2.83361 1.14489,-0.87427 2.72488,-2.41059 3.51109,-3.41404 0.78621,-1.00346 1.8406,-3.62626 2.34309,-5.82846 l 0.91361,-4.00398 -1.04631,-3.92576 -1.04631,-3.92577 -2.70096,-3.2099 -2.70095,-3.20991 -5.41141,-1.60701 -5.4114,-1.60701 h -13.58401 -13.584 v 17.48536 17.48536 l 15.10099,-0.0806 15.101,-0.0806 z m 85.15689,11.73753 c -0.062,-22.29384 -0.18117,-41.488 -0.26493,-42.65369 l -0.15228,-2.11943 -18.28015,-0.28996 -18.28015,-0.28995 v -10.04231 -10.0423 h 49.80679 49.80678 v 10.0423 10.04231 l -18.28015,0.28995 -18.28015,0.28996 0.26171,42.65368 0.26171,42.65368 h -13.24326 -13.24327 z m 79.34597,-12.45195 -0.28427,-52.98619 43.18355,2.5e-4 43.18354,2.5e-4 v 10.05082 10.05083 l -29.93706,0.28143 -29.93705,0.28144 v 10.59718 10.59719 l 26.79742,0.28321 26.79743,0.28321 -0.30446,9.78412 -0.30445,9.78412 -26.79357,0.2832 -26.79357,0.2832 0.3006,11.37371 0.3006,11.3737 30.99677,0.28094 30.99678,0.28094 v 10.05132 10.05132 h -43.959 -43.959 z m 100.03579,52.01612 c 0.19428,-0.53354 8.93696,-12.25007 19.42817,-26.03674 10.49122,-13.78667 19.21124,-25.65595 19.37782,-26.37617 l 0.30287,-1.3095 -15.16968,-20.07618 c -8.34333,-11.04189 -16.98475,-22.57976 -19.20314,-25.6397 l -4.03346,-5.56352 15.19125,0.0323 15.19125,0.0323 11.65691,15.94527 c 6.4113,8.76989 12.17743,16.38098 12.81363,16.91354 l 1.15672,0.96828 12.61962,-16.93091 12.61963,-16.93092 14.69691,-0.015 14.69691,-0.015 -2.97949,3.97394 c -1.63872,2.18567 -9.84618,12.99227 -18.2388,24.01466 -8.39262,11.0224 -15.76184,20.84539 -16.37604,21.82888 l -1.11672,1.78816 19.41699,25.85847 c 10.67935,14.22216 19.868,26.45457 20.41923,27.18312 l 1.00223,1.32465 h -15.4136 -15.41359 l -12.36366,-16.69057 c -6.80001,-9.17981 -12.78914,-17.40588 -13.30918,-18.28015 l -0.94553,-1.58958 -0.81418,1.17843 c -0.44779,0.64814 -6.50597,8.8742 -13.46261,18.28015 l -12.64844,17.10172 h -14.72763 -14.72763 z"
       id="path8" /><g
       id="g9"
       style="fill:url(#linearGradient10);filter:url(#filter9)"><path
         style="fill:url(#linearGradient2)"
         d="m 565.08348,555.21979 5.05094,-0.6283 -3.38195,-3.17916 c -1.86008,-1.74854 -3.65612,-3.1525 -3.99122,-3.11993 -0.3351,0.0326 -1.15531,-0.44429 -1.82269,-1.05972 l -1.21342,-1.11894 0.48117,-0.79479 0.48117,-0.79479 h -0.91031 c -0.50068,0 -1.55253,0.59609 -2.33745,1.32465 l -1.42713,1.32464 0.70105,-1.24888 0.70104,-1.24888 -2.40009,-0.46131 c -1.32004,-0.25372 19.21818,-0.52625 45.64051,-0.60563 l 48.04058,-0.14431 -0.35323,-0.98053 c -0.19429,-0.53929 -13.94414,-11.50716 -30.55523,-24.37305 -16.61109,-12.86589 -30.53555,-23.39274 -30.94323,-23.39301 -0.40769,-2.6e-4 -2.83886,2.97998 -5.4026,6.62276 -2.56374,3.64279 -10.03893,14.25322 -16.61153,23.57875 -6.57259,9.32552 -12.42109,17.43237 -12.99666,18.01522 l -1.04648,1.05972 0.72011,-2.38355 0.72012,-2.38354 -2.72045,-1.03431 -2.72044,-1.03432 v -1.12323 -1.12323 l -2.2102,1.18286 c -1.21561,0.65057 -2.37148,1.02158 -2.5686,0.82446 -0.19712,-0.19711 9.8438,-15.13805 22.31315,-33.20207 12.46936,-18.06402 26.85627,-38.9593 31.97091,-46.43396 l 9.29936,-13.59028 -5.98643,-11.31311 c -3.29254,-6.22221 -16.32397,-31.34179 -28.95875,-55.8213 -12.63477,-24.47951 -23.41035,-44.96122 -23.94574,-45.51492 l -0.97342,-1.00674 v 64.60987 64.60986 l -9.62369,6.86817 c -5.29303,3.7775 -13.99598,9.92123 -19.33987,13.65274 -5.3439,3.73152 -9.12009,6.13973 -8.39153,5.35158 0.72855,-0.78814 1.32465,-1.81448 1.32465,-2.28076 v -0.84777 l -1.32465,0.26493 -1.32465,0.26492 0.23206,-1.22605 0.23207,-1.22606 -1.29178,0.19614 c -0.71049,0.10787 -2.0071,0.61684 -2.88137,1.13103 l -1.58958,0.93489 0.7856,-0.86719 0.78559,-0.86718 -1.128,-1.35917 -1.128,-1.35916 -1.68594,0.64696 -1.68594,0.64695 0.67105,-1.08578 c 0.36907,-0.59718 8.30554,-6.51992 17.63658,-13.16164 l 16.96553,-12.07586 0.0226,-61.41071 0.0226,-61.41071 -0.93327,1.00674 c -0.51329,0.5537 -8.67912,16.02824 -18.14629,34.38787 -9.46716,18.35963 -18.7491,36.24239 -20.62653,39.73946 -1.87743,3.49707 -6.42724,12.22063 -10.11068,19.38568 l -6.69718,13.02738 1.7987,3.92813 1.7987,3.92813 -1.91459,-2.41198 -1.91458,-2.41197 -1.29927,1.29927 -1.29926,1.29927 -1.32465,-1.42763 -1.32465,-1.42764 1.85451,0.65257 1.8545,0.65257 v -1.00627 -1.00627 l -2.57015,-0.64507 -2.57015,-0.64506 0.38987,-2.02442 0.38987,-2.02442 h -1.11225 -1.11226 l 0.60998,-1.58958 0.60998,-1.58958 -0.76153,-0.0285 c -0.41884,-0.0157 -2.43059,-1.49168 -4.47054,-3.28 l -3.70902,-3.25149 3.17916,2.09808 3.17915,2.09809 36.03044,-70.31816 c 19.81675,-38.67499 36.27846,-70.33209 36.58159,-70.34911 0.30313,-0.017 6.22538,11.05636 13.16054,24.60752 6.93517,13.55115 19.48306,37.99092 27.88421,54.31059 8.40116,16.31967 19.39941,37.42132 24.44058,46.89256 5.04116,9.47124 9.41801,17.22043 9.72634,17.22043 0.30832,0 6.75462,-7.84021 14.32511,-17.42269 7.57049,-9.58248 14.05842,-17.33167 14.41764,-17.22043 0.35922,0.11124 9.18137,9.988 19.6048,21.94836 10.42342,11.96035 24.67416,28.38287 31.6683,36.49448 6.99415,8.11161 14.19284,16.40671 15.99711,18.43354 l 3.28047,3.68515 12.61531,-6.68174 c 6.93842,-3.67496 14.63422,-7.84799 17.10179,-9.2734 l 4.48648,-2.59166 21.47663,20.47945 c 11.81215,11.2637 31.07917,29.93352 42.81561,41.48849 l 21.33899,21.00904 23.16921,7.30354 23.1692,7.30355 -160.01754,-0.12092 -160.01755,-0.12091 z m 233.82735,-12.17443 c -0.24285,-0.23049 -12.84026,-5.19863 -27.99424,-11.04031 -15.15398,-5.84167 -34.21774,-13.11658 -42.36392,-16.16645 l -14.81123,-5.54522 -7.81574,8.37271 c -4.29866,4.60499 -11.1558,12.06848 -15.2381,16.58553 l -7.42236,8.21282 h 58.04357 c 31.92396,0 57.84487,-0.18859 57.60202,-0.41908 z M 684.7066,522.69137 c 7.78201,-8.51095 14.28208,-15.82454 14.44461,-16.25242 l 0.2955,-0.77795 -20.04189,-6.12784 c -11.02305,-3.37031 -20.5244,-6.42872 -21.11413,-6.79646 l -1.07224,-0.66863 -5.82046,-23.84367 c -3.20126,-13.11402 -6.91611,-28.61241 -8.25523,-34.44086 -1.33911,-5.82846 -2.74023,-10.96725 -3.11358,-11.41954 l -0.67882,-0.82235 -9.23697,11.7155 -9.23697,11.7155 20.84757,39.97335 c 11.46616,21.98535 22.49553,42.95382 24.50971,46.5966 2.01419,3.64279 3.81102,6.62324 3.99297,6.62324 0.18196,0 6.69792,-6.96351 14.47993,-15.47447 z m 103.31323,-7.60999 c -8.24109,-8.03369 -20.76778,-20.19397 -27.8371,-27.02283 l -12.8533,-12.41612 h -1.24779 c -0.68628,0 -8.87399,4.10976 -18.19491,9.1328 -9.32092,5.02303 -17.09561,8.95724 -17.2771,8.74268 -0.18149,-0.21457 -7.90753,-9.21664 -17.169,-20.00461 -9.26146,-10.78797 -21.3527,-24.78635 -26.86943,-31.10751 l -10.03042,-11.49302 -0.25275,0.90553 c -0.13902,0.49803 2.47474,12.07788 5.80834,25.733 l 6.0611,24.82748 24.35673,7.54751 24.35673,7.54751 27.02283,10.24467 c 14.86256,5.63457 33.69906,12.85579 41.8589,16.04715 8.15983,3.19137 15.37942,5.82948 16.04352,5.86248 l 1.20746,0.06 z M 630.64636,491.54622 c -9.69533,-18.64665 -17.90034,-33.9066 -18.23334,-33.911 -0.33301,-0.004 -4.5601,5.7554 -9.39353,12.79957 l -8.78806,12.80759 1.03014,1.03014 c 0.56659,0.56658 12.42365,10.02638 26.34903,21.02177 13.92539,10.9954 25.62145,20.02837 25.99126,20.07328 0.3698,0.0449 -7.26017,-15.1747 -16.9555,-33.82135 z"
         id="path7" /><path
         style="fill:url(#linearGradient3)"
         d="m 203.96701,554.77006 c 1.74853,-0.73042 11.647,-3.93065 21.99658,-7.11162 l 18.81742,-5.78358 19.84537,-20.13466 c 10.91496,-11.07406 29.12533,-29.55291 40.46749,-41.0641 11.34216,-11.5112 21.12569,-20.92603 21.74118,-20.92185 0.61548,0.004 8.01821,3.81917 16.4505,8.47775 8.43229,4.65858 15.82383,8.43976 16.42564,8.40261 0.60181,-0.0371 8.24731,-8.70453 16.98999,-19.26086 8.74268,-10.55633 21.79729,-26.14355 29.01025,-34.63826 7.21296,-8.49471 14.71392,-17.26115 16.6688,-19.48099 l 3.55433,-4.03607 1.34642,1.13316 c 0.74053,0.62324 3.01548,2.55107 5.05544,4.28407 2.03996,1.733 4.30511,3.15853 5.03366,3.16784 l 1.32465,0.0169 v 1.00881 c 0,0.55484 2.02672,2.40322 4.50381,4.1075 2.47709,1.70429 4.895,3.0386 5.37313,2.96514 0.47814,-0.0735 1.33636,0.70097 1.90717,1.72095 0.57081,1.01997 1.46644,1.8545 1.9903,1.8545 0.52385,0 2.24396,1.19692 3.82245,2.65982 1.5785,1.4629 3.06259,2.46723 3.29798,2.23184 0.2354,-0.2354 1.59527,0.73929 3.02195,2.16596 l 2.59395,2.59396 1.21457,-0.75065 1.21457,-0.75065 -0.76076,1.23094 -0.76076,1.23094 1.58983,0.61008 1.58983,0.61007 -0.57632,1.50188 -0.57633,1.50188 h 1.11226 1.11225 l -0.38987,2.02442 -0.38987,2.02442 2.57015,0.64506 2.57015,0.64507 v 1.00627 1.00627 l -1.8545,-0.65257 -1.85451,-0.65257 1.27973,1.38272 1.27974,1.38272 1.56059,-1.29517 1.56058,-1.29517 1.37371,2.45279 c 0.75553,1.34903 1.96618,3.40653 2.69033,4.57222 0.72415,1.16569 1.86763,3.46721 2.54106,5.11449 0.67344,1.64728 2.26935,4.98539 3.54649,7.41803 1.27713,2.43264 3.911,7.28423 5.85304,10.7813 1.94205,3.49707 3.69927,6.55724 3.90493,6.80038 0.20567,0.24313 1.21662,0.50415 2.24657,0.58002 1.02994,0.0759 2.4681,0.506 3.19592,0.95581 l 1.3233,0.81785 -0.71088,1.15023 -0.71088,1.15023 1.48839,-0.92873 c 0.81861,-0.5108 2.06968,-1.01699 2.78017,-1.12486 l 1.29178,-0.19614 -0.23207,1.22606 -0.23206,1.22605 1.32465,-0.26492 1.32465,-0.26493 -0.0337,0.79478 c -0.0185,0.43714 -0.6672,1.62932 -1.44147,2.6493 -0.77428,1.01998 -1.90027,1.85451 -2.50222,1.85451 -0.60194,0 -1.36893,0.71531 -1.70442,1.58958 l -0.60998,1.58958 h -1.53453 c -0.84399,0 -1.69348,0.41857 -1.88776,0.93016 -0.19429,0.51159 -11.0829,8.69927 -24.19692,18.19485 -13.11402,9.49559 -28.49319,20.77784 -34.17593,25.07168 -5.68274,4.29384 -10.33226,8.02799 -10.33226,8.29811 0,0.27013 23.72446,0.48977 52.72101,0.48809 l 52.72102,-0.003 2.01183,-3.00316 2.01182,-3.00316 3.02184,-1.14061 3.02184,-1.14062 v 0.9939 0.99389 l 2.72044,1.03432 2.72045,1.03431 -0.67606,2.1301 -0.67607,2.13009 3.23701,0.6474 3.23701,0.64741 -0.66812,1.19562 -0.66813,1.19562 1.42713,-1.32464 c 0.78492,-0.72856 1.83677,-1.32465 2.33745,-1.32465 h 0.91031 l -0.48117,0.79479 -0.48117,0.79479 1.21342,1.11894 c 0.66738,0.61543 1.59936,1.18259 2.07106,1.26036 0.47171,0.0778 2.27824,1.5303 4.01451,3.22783 l 3.15687,3.08642 -7.19367,0.67935 -7.19366,0.67936 -177.50291,-0.034 -177.50291,-0.0339 z m 176.97305,-23.58987 c -6.99415,-6.69903 -14.88209,-14.02807 -17.52876,-16.28675 l -4.81212,-4.10668 -39.02185,15.75293 c -21.46202,8.66412 -39.28551,16.0166 -39.60776,16.33884 l -0.5859,0.58591 57.1365,-0.0521 57.13651,-0.0521 z m 37.67265,-10.76464 c 5.37279,-10.3455 11.06436,-21.19437 12.64792,-24.1086 1.58356,-2.91423 5.62498,-10.4526 8.98093,-16.75193 3.35595,-6.29934 5.93064,-11.61562 5.72154,-11.81396 -0.20911,-0.19835 -7.42794,5.52711 -16.04185,12.72325 l -15.66165,13.08388 -8.71188,2.62448 c -4.79154,1.44347 -13.85658,4.17737 -20.14456,6.07534 l -11.43267,3.45086 0.30563,1.25226 c 0.16809,0.68874 7.69716,8.20498 16.73127,16.70275 9.0341,8.49777 16.7431,15.47776 17.13111,15.51109 0.38802,0.0333 5.10141,-8.40391 10.47421,-18.74942 z m -94.36761,-9.55514 39.73945,-15.88948 13.77635,-3.83502 c 7.57699,-2.10926 16.61551,-4.72854 20.0856,-5.82062 l 6.30926,-1.9856 0.80827,-1.98912 c 0.44454,-1.09402 2.77382,-12.16011 5.17616,-24.59132 2.40234,-12.43121 4.12102,-22.84908 3.81928,-23.15083 -0.30174,-0.30174 -11.85882,13.08282 -25.6824,29.74345 l -25.13377,30.29207 -10.17656,-5.49415 c -5.59711,-3.02178 -13.27624,-7.32206 -17.06474,-9.55618 l -6.88817,-4.06204 -26.19866,26.78847 c -14.40927,14.73366 -26.21189,27.12498 -26.22804,27.53626 l -0.0294,0.74778 3.97395,-1.42209 c 2.18567,-0.78215 21.8567,-8.57236 43.7134,-17.31158 z m 135.37599,-5.14386 c 13.26143,-9.66263 24.74048,-18.16678 25.50899,-18.89811 l 1.39731,-1.32968 -8.26962,-16.58007 c -4.54829,-9.11904 -8.57533,-16.58007 -8.94898,-16.58007 -0.37365,0 -4.62237,7.51076 -9.44161,16.69057 -4.81924,9.17981 -13.46204,25.54687 -19.20623,36.37123 -5.74418,10.82436 -10.44397,20.05902 -10.44397,20.52147 v 0.8408 l 2.64621,-1.73386 c 1.45541,-0.95362 13.49647,-9.63965 26.7579,-19.30228 z m -21.98608,-47.57637 c 9.03411,-7.28596 17.82485,-14.42255 19.53498,-15.85911 l 3.10933,-2.61191 -2.57947,-2.12838 c -1.41871,-1.17061 -3.15544,-2.61409 -3.8594,-3.20774 -0.70395,-0.59365 -1.77692,-1.07936 -2.38436,-1.07936 -0.60745,0 -1.10445,-0.46718 -1.10445,-1.03818 v -1.03818 l -4.12831,-2.10611 c -2.27058,-1.15836 -4.97854,-2.95633 -6.01769,-3.99549 -1.03916,-1.03915 -2.29849,-1.88937 -2.79851,-1.88937 -0.50003,0 -1.2494,-0.53182 -1.66528,-1.18182 -0.41587,-0.65 -1.79112,-1.50461 -3.0561,-1.89913 l -2.29998,-0.71732 -1.15658,5.60815 c -0.63613,3.08448 -2.95997,14.78797 -5.16409,26.00774 -2.20413,11.21977 -3.74835,20.39594 -3.43161,20.39149 0.31673,-0.004 7.96742,-5.96933 17.00152,-13.25528 z"
         id="path6" /></g><path
       style="fill:url(#linearGradient16);fill-opacity:1"
       d="m 394.55082,802.05633 c -2.42246,-0.51467 -6.34341,-1.92495 -8.71322,-3.13394 -2.36982,-1.20899 -5.97196,-3.65847 -8.00476,-5.44329 l -3.696,-3.24513 -2.9567,-6.0209 -2.95671,-6.02091 v -9.00761 -9.00761 l 2.95671,-6.0209 2.9567,-6.0209 3.88311,-3.40942 3.88311,-3.40941 5.50813,-2.52171 5.50812,-2.5217 6.86597,-0.64115 6.86596,-0.64116 7.70957,2.34171 7.70956,2.34171 5.96982,6.01259 5.96982,6.01259 1.8125,5.68522 1.8125,5.68521 v 6.19687 6.19687 l -2.28241,6.10029 -2.28241,6.1003 -5.40955,5.40954 -5.40954,5.40955 -5.2896,1.82266 -5.2896,1.82265 -6.35831,0.43188 -6.35831,0.43187 z m 17.33134,-14.95834 4.58843,-2.22122 2.89925,-4.93188 2.89925,-4.93188 -0.075,-6.45577 -0.075,-6.45577 -2.38408,-3.85753 -2.38409,-3.85753 -2.94543,-2.09733 -2.94543,-2.09733 -4.36176,-0.98003 -4.36176,-0.98002 -4.91395,1.04804 -4.91395,1.04805 -4.018,4.018 -4.018,4.018 -1.13827,5.30757 -1.13827,5.30756 1.41708,5.463 1.41708,5.463 3.05349,3.24662 c 1.67942,1.78565 4.4841,3.8852 6.23264,4.66567 l 3.17916,1.41904 4.69908,0.0415 4.69909,0.0415 z m 253.73806,14.92102 -4.62309,-0.9731 -5.44424,-3.0538 -5.44425,-3.05381 -3.87799,-5.08512 -3.87799,-5.08511 -1.82117,-5.78999 -1.82118,-5.78999 0.54393,-6.7762 0.54393,-6.7762 2.81335,-5.75027 2.81335,-5.75028 3.88311,-3.40942 3.88311,-3.40941 5.50812,-2.52171 5.50812,-2.5217 6.86597,-0.64115 6.86597,-0.64116 7.70956,2.34171 7.70957,2.34171 6.02305,6.02306 6.02306,6.02306 1.88786,5.68379 1.88785,5.6838 -0.48495,8.08208 -0.48495,8.08208 -2.77264,5.42931 -2.77263,5.42931 -4.87768,4.2935 -4.87768,4.29351 -4.97488,1.71542 -4.97488,1.71542 -6.35832,0.43188 -6.35831,0.43187 z m 17.54997,-14.92102 4.58843,-2.22122 2.7352,-4.66727 2.7352,-4.66727 0.5357,-3.99392 0.53569,-3.99392 -1.19431,-4.43533 -1.1943,-4.43533 -2.74766,-3.2654 c -1.51121,-1.79597 -4.22953,-4.03171 -6.04071,-4.96831 l -3.29305,-1.7029 h -5.43962 -5.43961 l -4.4915,2.52436 -4.4915,2.52437 -2.54539,4.34337 -2.54538,4.34337 v 5.93129 5.93129 l 1.12713,2.98322 c 0.61993,1.64076 2.40821,4.35269 3.97395,6.02649 1.56575,1.67381 4.27743,3.68186 6.02597,4.46233 l 3.17915,1.41904 4.69909,0.0415 4.69908,0.0415 z M 289.27438,769.18455 v -32.85128 h 7.41803 7.41803 v 12.71663 12.71662 h 14.3062 14.30621 V 749.0499 736.33327 h 7.94789 7.94789 v 32.85128 32.85129 h -7.94789 -7.94789 v -13.77635 -13.77634 h -14.30621 -14.3062 v 13.77634 13.77635 h -7.41803 -7.41803 z m 168.0341,31.90268 -0.58627,-0.94861 0.2588,-31.90146 0.2588,-31.90145 17.02809,-10e-4 17.02809,-10e-4 5.55408,1.64938 5.55408,1.64939 4.1842,3.78017 4.1842,3.78017 1.69517,5.83119 1.69518,5.83118 -0.672,4.20243 c -0.3696,2.31134 -1.62431,6.06912 -2.78825,8.35063 l -2.11626,4.14821 -3.67828,2.37779 -3.67828,2.37779 0.41613,1.13018 c 0.22888,0.6216 3.32593,5.28924 6.88233,10.37253 3.55641,5.08329 6.4662,9.46266 6.4662,9.73193 0,0.26928 -3.72064,0.4896 -8.26809,0.4896 h -8.2681 l -6.1317,-9.53747 -6.1317,-9.53747 h -6.79458 -6.79458 v 9.53747 9.53747 h -7.35549 -7.35549 z m 32.46949,-30.88537 3.92574,-1.09031 2.16764,-2.75571 2.16764,-2.75571 v -3.63577 -3.63577 l -1.09113,-2.0388 -1.09114,-2.0388 -3.09511,-1.60055 -3.09512,-1.60054 h -8.53038 -8.53037 v 11.12704 11.12705 l 6.62324,-0.006 6.62324,-0.006 z m 43.99661,31.03919 c -0.23097,-0.43714 -0.5386,-15.22021 -0.68363,-32.85129 l -0.26368,-32.05649 h 8.03911 8.03911 v 32.85128 32.85129 H 541.55 534.19451 Z m 34.20585,-4.4783 v -5.27309 l 17.5408,-20.95495 17.5408,-20.95496 -17.01094,-0.29118 -17.01094,-0.29118 v -6.33206 -6.33206 h 27.55269 27.55269 v 4.57348 4.57349 l -17.45242,21.1247 c -9.59884,11.61858 -17.46725,21.48235 -17.48536,21.91948 l -0.0329,0.79479 h 18.01522 18.01522 v 6.35831 6.35832 h -28.61241 -28.61241 z m 161.07727,-27.5782 v -32.85128 h 6.68888 6.68888 l 2.51132,3.44409 c 1.38123,1.89424 8.23779,10.47797 15.23681,19.07493 6.99902,8.59697 12.99249,15.63143 13.31883,15.63212 l 0.59333,10e-4 -0.31116,-19.0762 -0.31116,-19.0762 h 7.37014 7.37013 l 0.45272,6.62324 c 0.249,3.64279 0.41057,18.30664 0.35906,32.58636 l -0.0937,25.96311 -6.35831,0.27245 -6.35831,0.27245 -15.89579,-19.58416 -15.89578,-19.58417 -0.28831,19.57665 -0.28831,19.57664 h -7.39465 -7.39465 z M 244.2532,703.48198 c -0.7411,-1.45711 -6.1149,-13.14051 -11.94178,-25.96311 -5.82688,-12.8226 -13.70867,-30.22848 -17.51509,-38.67974 -3.80642,-8.45125 -9.31106,-20.73075 -12.23253,-27.28776 l -5.31176,-11.92183 h 14.08628 14.08628 l 5.58793,12.45169 c 3.07336,6.84844 10.08756,22.70448 15.5871,35.23566 5.49954,12.53117 10.45911,23.94741 11.02126,25.36942 l 1.0221,2.58547 6.34403,-14.24237 c 3.48921,-7.83331 11.16522,-24.85282 17.05779,-37.82113 l 10.71376,-23.57874 h 13.50636 13.50636 l -18.29491,40.00438 c -10.0622,22.00242 -20.92949,45.72687 -24.14953,52.72102 l -5.85463,12.71662 -12.93578,0.52986 -12.93578,0.52986 z m 89.52937,-50.60157 v -53.25087 h 42.91861 42.91861 v 10.06733 10.06733 h -30.20198 -30.20199 v 11.12704 11.12705 h 27.0626 27.06259 l -0.30469,9.8024 -0.3047,9.8024 -26.7579,0.28313 -26.7579,0.28312 v 11.63871 11.63871 h 31.26171 31.2617 v 10.33226 10.33226 H 377.7609 333.78257 Z m 109.58862,52.80932 c -0.24067,-0.24285 -0.43758,-24.20574 -0.43758,-53.25087 v -52.80932 l 29.4072,0.0184 29.40719,0.0184 6.96172,1.47579 c 3.82894,0.81168 9.13947,2.49945 11.80116,3.75059 2.6617,1.25114 6.78122,3.93689 9.15449,5.96833 l 4.31505,3.69351 3.4356,6.97871 3.43561,6.97871 -0.006,8.60766 -0.006,8.60767 -2.91075,6.35831 -2.91076,6.35831 -3.91856,4.06374 -3.91856,4.06374 -3.97395,2.05118 c -2.18567,1.12815 -3.97394,2.23302 -3.97394,2.45527 0,0.22224 5.46522,8.08096 12.14495,17.46382 l 12.14495,17.05974 h -14.60314 -14.60314 l -6.27678,-9.24043 c -3.45197,-5.08224 -8.2165,-11.87769 -10.58759,-15.10099 l -4.31107,-5.86056 -11.85735,0.33103 -11.85736,0.33104 v 14.70765 14.70764 l -12.8089,0.32724 c -7.0449,0.17998 -13.00582,0.12854 -13.24649,-0.11431 z m 59.47436,-52.36008 c 1.76934,-0.68422 4.15371,-1.95934 5.29859,-2.83361 1.14489,-0.87427 2.72488,-2.41059 3.51109,-3.41404 0.78621,-1.00346 1.8406,-3.62626 2.34309,-5.82846 l 0.91361,-4.00398 -1.04631,-3.92576 -1.04631,-3.92577 -2.70096,-3.2099 -2.70095,-3.20991 -5.41141,-1.60701 -5.4114,-1.60701 h -13.58401 -13.584 v 17.48536 17.48536 l 15.10099,-0.0806 15.101,-0.0806 z m 85.15689,11.73753 c -0.062,-22.29384 -0.18117,-41.488 -0.26493,-42.65369 l -0.15228,-2.11943 -18.28015,-0.28996 -18.28015,-0.28995 v -10.04231 -10.0423 h 49.80679 49.80678 v 10.0423 10.04231 l -18.28015,0.28995 -18.28015,0.28996 0.26171,42.65368 0.26171,42.65368 h -13.24326 -13.24327 z m 79.34597,-12.45195 -0.28427,-52.98619 43.18355,2.5e-4 43.18354,2.5e-4 v 10.05082 10.05083 l -29.93706,0.28143 -29.93705,0.28144 v 10.59718 10.59719 l 26.79742,0.28321 26.79743,0.28321 -0.30446,9.78412 -0.30445,9.78412 -26.79357,0.2832 -26.79357,0.2832 0.3006,11.37371 0.3006,11.3737 30.99677,0.28094 30.99678,0.28094 v 10.05132 10.05132 h -43.959 -43.959 z m 100.03579,52.01612 c 0.19428,-0.53354 8.93696,-12.25007 19.42817,-26.03674 10.49122,-13.78667 19.21124,-25.65595 19.37782,-26.37617 l 0.30287,-1.3095 -15.16968,-20.07618 c -8.34333,-11.04189 -16.98475,-22.57976 -19.20314,-25.6397 l -4.03346,-5.56352 15.19125,0.0323 15.19125,0.0323 11.65691,15.94527 c 6.4113,8.76989 12.17743,16.38098 12.81363,16.91354 l 1.15672,0.96828 12.61962,-16.93091 12.61963,-16.93092 14.69691,-0.015 14.69691,-0.015 -2.97949,3.97394 c -1.63872,2.18567 -9.84618,12.99227 -18.2388,24.01466 -8.39262,11.0224 -15.76184,20.84539 -16.37604,21.82888 l -1.11672,1.78816 19.41699,25.85847 c 10.67935,14.22216 19.868,26.45457 20.41923,27.18312 l 1.00223,1.32465 h -15.4136 -15.41359 l -12.36366,-16.69057 c -6.80001,-9.17981 -12.78914,-17.40588 -13.30918,-18.28015 l -0.94553,-1.58958 -0.81418,1.17843 c -0.44779,0.64814 -6.50597,8.8742 -13.46261,18.28015 l -12.64844,17.10172 h -14.72763 -14.72763 z"
       id="path10" /><path
       style="mix-blend-mode:multiply;fill:#e4e8f8;fill-opacity:1"
       d="m 398.70822,803.15167 c -16.77157,-2.84297 -29.03895,-19.07221 -26.32739,-35.72463 -0.68139,-17.82855 17.42366,-31.4325 34.40234,-30.9652 10.27559,-0.1243 21.17335,3.70336 27.42448,12.34456 10.42872,10.5516 9.70031,28.97938 2.0113,40.96152 -7.00869,9.43424 -17.78399,14.67294 -29.59425,14.08098 -2.72514,0.52532 -5.27213,-0.0412 -7.91648,-0.69723 z m 17.33134,-14.95834 c 8.74149,-3.48363 11.70227,-14.08047 10.26222,-22.81974 -1.88437,-15.3812 -25.10023,-21.66514 -34.26238,-8.92382 -11.19412,11.14818 -2.25207,35.31696 14.71263,33.92332 3.54917,0.56424 6.2729,-0.35034 9.28753,-2.17976 z m 253.73806,14.92102 c -17.8519,-3.05097 -30.11933,-22.32234 -26.02358,-39.87268 3.14823,-20.2205 27.59825,-31.97975 46.05219,-24.81403 9.22805,1.50138 16.15807,9.63302 20.65494,17.09524 5.92335,14.18658 2.62791,32.9201 -10.65782,41.86142 -8.00678,6.4803 -20.15698,7.51154 -30.02573,5.73005 z m 17.54997,-14.92102 c 14.70203,-6.47675 14.44553,-31.42398 -1.3138,-37.30318 -12.7631,-5.51045 -29.56999,5.59857 -26.97901,20.0455 -1.47545,14.23338 16.4592,24.75741 28.29281,17.25768 z M 293.43178,770.27989 c 0,-10.95043 0,-21.90085 0,-32.85128 8.62148,-0.3478 18.75487,-2.20751 14.83606,9.98498 -1.00555,9.95877 -1.24794,19.15439 11.4114,15.44827 6.74874,-1.36231 20.82469,4.60259 17.20101,-7.13213 1.24928,-7.50039 -4.52918,-22.02852 7.94789,-18.30112 12.66954,-3.83907 6.58714,11.07381 7.94789,18.54353 0,15.71968 0,31.43936 0,47.15904 -8.74121,0.11429 -19.90988,2.65604 -15.89578,-9.98498 -0.88995,-7.8188 4.13369,-21.5512 -8.55855,-17.56771 -6.07952,2.03152 -20.92666,-4.70457 -20.05386,4.27928 -1.72583,6.98292 3.57625,20.99375 -2.85285,23.27341 -10.83829,2.56461 -14.27237,-2.27498 -11.98321,-12.83783 0,-6.67115 0,-13.34231 0,-20.01346 z m 168.0341,31.90268 c -1.2112,-21.25147 0.15526,-43.22391 -0.0687,-64.75152 15.63796,1.41665 33.52737,-3.86554 47.28122,5.20925 13.56165,8.67025 11.87779,32.57249 -3.2912,38.76708 12.0405,12.91967 16.65476,27.6673 -3.54292,20.52439 -5.82858,-5.78249 -7.33964,-19.47358 -17.19771,-17.87509 -12.40909,-3.74926 -6.60579,10.71387 -7.88346,18.09602 -2.28204,1.40384 -12.28432,1.76349 -15.29726,0.0299 z m 32.46949,-30.88537 c 11.19261,-1.46987 11.17484,-19.38705 -0.11148,-21.15196 -8.8767,0.13854 -21.1592,-3.12872 -17.06075,9.98498 -2.82156,11.32931 2.74653,14.26138 13.24648,12.25711 1.30858,-0.36338 2.61717,-0.72675 3.92575,-1.09013 z m 43.99661,31.03919 c -0.87796,-21.62074 -0.66751,-43.27213 -0.94731,-64.90778 8.76218,-0.0744 20.10689,-2.73142 16.07822,9.98498 0,18.57253 0,37.14506 0,55.71759 -4.70065,-0.67188 -11.27731,1.21924 -15.13091,-0.79479 z m 34.20585,-4.4783 c -0.56649,-10.04658 10.7846,-15.76355 15.56497,-23.86763 6.50554,-7.77179 13.01109,-15.54358 19.51663,-23.31537 -11.34063,-0.19412 -22.68125,-0.38824 -34.02188,-0.58236 -2.42261,-10.92326 1.82855,-15.17275 12.83783,-12.66412 14.08918,0 28.17837,0 42.26755,0 2.78299,11.18202 -8.11026,17.44538 -13.62769,25.64215 -3.86141,8.2939 -32.73369,29.52781 -12.78444,27.34379 9.1573,0 18.31459,0 27.47189,0 2.41031,10.92847 -1.79285,15.24345 -12.83783,12.71663 -14.79566,0 -29.59133,0 -44.38699,0 -10e-6,-1.7577 -3e-5,-3.51539 -4e-5,-5.27309 z m 161.07727,-27.5782 c 0,-10.95043 0,-21.90085 0,-32.85128 16.38412,-4.79379 21.74214,12.54318 31.12589,22.51902 8.33358,12.74763 17.1937,21.06623 13.67952,1.37076 0.84293,-7.47404 -2.27384,-18.84373 1.03675,-23.89004 14.3387,-3.9047 16.20706,5.94132 14.05878,18.92757 0.16001,15.41476 0.006,30.83014 -0.0269,46.24514 -9.40234,2.33722 -16.37002,-0.73264 -20.80705,-9.42279 -7.90039,-9.73354 -15.80076,-19.46709 -23.70114,-29.20064 -0.19221,13.0511 -0.38441,26.10219 -0.57662,39.15329 -8.61628,0.35819 -18.70348,2.18729 -14.78929,-9.98498 10e-6,-7.62202 10e-6,-15.24403 2e-5,-22.86605 z M 248.4106,704.57732 c -15.96972,-34.4789 -31.52878,-69.14765 -47.00116,-103.85244 9.39085,0 18.78171,0 28.17256,0 11.24189,25.13834 22.54525,50.25771 33.21839,75.64224 11.21246,-25.28571 22.66817,-50.46233 34.11558,-75.64224 9.00424,0 18.00848,0 27.01272,0 -16.08696,35.15316 -32.12526,70.32869 -48.29907,105.44202 -8.62385,0.35324 -17.24771,0.70648 -25.87156,1.05972 -0.44915,-0.8831 -0.89831,-1.7662 -1.34746,-2.6493 z m 89.52937,-50.60157 c 0,-17.75029 0,-35.50058 0,-53.25087 28.61241,0 57.22481,0 85.83722,0 -2.22101,5.91697 4.78105,21.057 -4.27928,20.13466 -18.70823,0 -37.41646,0 -56.12469,0 2.10547,6.73898 -4.65277,22.34168 4.27928,22.25409 16.6153,0 33.23061,0 49.84591,0 -1.9589,7.19441 4.35294,22.83085 -7.74112,19.68026 -15.46136,0.1636 -30.92271,0.3272 -46.38407,0.49079 1.07752,7.15709 -2.03674,18.50597 1.42643,23.27742 20.36566,0 40.73132,0 61.09698,0 -2.18875,6.12585 4.74686,21.37606 -4.27928,20.66452 -27.89246,0 -55.78492,0 -83.67738,0 0,-17.75029 0,-35.50058 0,-53.25087 z m 109.58862,52.80932 c -0.75544,-35.34551 -0.32416,-70.70728 -0.43758,-106.06019 21.42981,0.74472 43.17041,-1.46638 64.39605,1.22004 16.25887,2.01026 31.39493,14.09823 33.51998,30.51525 1.52717,12.27285 -2.09492,25.01514 -11.73033,33.19646 -17.96988,6.7228 1.07958,19.83898 7.22232,30.95261 10.21547,9.8471 4.69816,11.58215 -7.08287,10.08752 -8.49812,0.35708 -17.58134,1.81893 -20.55258,-8.25963 -7.87071,-9.03807 -11.8926,-26.72681 -26.97185,-21.62389 -11.07978,-2.39131 -14.57381,2.59431 -12.30775,13.18144 -0.6944,7.70179 3.83459,20.49522 -8.55576,16.79604 -5.83125,0.10983 -11.67556,0.45176 -17.49963,-0.006 z m 59.47436,-52.36008 c 17.05709,-4.16291 14.2915,-30.89515 -2.20696,-32.36451 -10.08757,-2.5774 -20.84391,-0.55364 -31.21201,-1.20094 0,11.65691 0,23.31381 0,34.97072 11.03442,-0.82061 22.78423,1.43057 33.41897,-1.40527 z m 85.15689,11.73753 c -5.40904,-12.39513 10.93449,-46.5904 -8.97469,-44.90886 -9.33427,-0.14806 -18.66855,-0.29611 -28.00282,-0.44417 2.22418,-5.89712 -4.78434,-21.02694 4.27928,-20.08461 31.77809,0 63.55619,0 95.33429,0 -2.22389,5.9324 4.78374,20.95105 -4.27874,20.15248 -10.76052,0.17067 -21.52104,0.34136 -32.28156,0.51204 0.17447,28.43579 0.34895,56.87157 0.52342,85.30736 -8.82884,0 -17.65769,0 -26.48653,0 -0.0376,-13.51141 -0.0751,-27.02283 -0.11265,-40.53424 z m 79.34597,-12.45195 c -0.0948,-17.66206 -0.18951,-35.32413 -0.28427,-52.98619 28.78903,1.7e-4 57.57806,3.3e-4 86.36709,5e-4 -2.22299,5.92478 4.78301,20.9922 -4.27909,20.14188 -18.53167,0.17421 -37.06335,0.34842 -55.59502,0.52264 2.15867,6.35524 -4.71379,21.64667 4.27904,21.23959 16.4386,0.17374 32.87721,0.34747 49.31581,0.5212 -1.95528,7.18578 4.34734,22.80081 -7.74064,19.64362 -15.48514,0.16367 -30.97027,0.32735 -46.45541,0.49102 2.26611,6.94486 -4.02723,22.59906 4.8803,22.78619 19.23815,0.17437 38.4763,0.34873 57.71445,0.5231 -2.22303,5.90427 4.78315,21.03776 -4.27928,20.10264 -27.87957,0 -55.75915,0 -83.63872,0 -0.0947,-17.66206 -0.18951,-35.32413 -0.28426,-52.98619 z m 100.03579,52.01612 c 12.49247,-18.24764 27.7291,-34.88702 39.10886,-53.72241 -12.83733,-17.06645 -25.87215,-33.98757 -38.40628,-51.2794 10.19884,0.81652 22.00014,-1.51519 31.22433,1.21613 8.25708,10.88402 15.68034,22.51868 24.78543,32.67556 8.41312,-11.28728 16.82622,-22.57455 25.23922,-33.86183 9.798,-0.01 19.5959,-0.02 29.3939,-0.03 -12.7747,17.29527 -26.3618,34.00926 -38.7111,51.60564 13.613,18.12195 27.2106,36.25547 40.8385,54.36624 -10.3609,-0.77501 -22.2772,1.53814 -31.6763,-1.14621 -8.5923,-11.80049 -17.6444,-23.29054 -25.76931,-35.41409 -8.85482,12.27363 -17.95321,24.37152 -26.92523,36.5603 -9.81842,0 -19.63684,0 -29.45526,0 z"
       id="path10-7" /></g></svg>
